<?xml version="1.0" encoding="UTF-8"?>
<svg width="606" height="240" viewBox="0 0 606 240" fill="none" xmlns="http://www.w3.org/2000/svg">
<path d="M125 107H190V133H181V116H162V175H181V158H190V184H125V158H135V116H125V107Z" fill="white"/>
<path d="M245 107C236.333 107 229.333 109.333 224 114C218.667 118.667 216 125.333 216 134V157C216 165.667 218.667 172.333 224 177C229.333 181.667 236.333 184 245 184C253.667 184 260.667 181.667 266 177C271.333 172.333 274 165.667 274 157V134C274 125.333 271.333 118.667 266 114C260.667 109.333 253.667 107 245 107ZM241 175C236.333 175 232.667 173.667 230 171C227.333 168.333 226 164.333 226 159V132C226 126.667 227.333 122.667 230 120C232.667 117.333 236.333 116 241 116H249C253.667 116 257.333 117.333 260 120C262.667 122.667 264 126.667 264 132V159C264 164.333 262.667 168.333 260 171C257.333 173.667 253.667 175 249 175H241Z" fill="white"/>
<path d="M324 107V184H314V116H280V184H270V107H324Z" fill="white"/>
<path d="M345 107H355V184H345V107Z" fill="white"/>
<path d="M394 184V116H373V107H425V116H404V184H394Z" fill="white"/>
<path d="M451.06 184H441.06L422.06 107H432.06L446.06 166L460.06 107H470.06L451.06 184Z" fill="white"/>
<path fill-rule="evenodd" clip-rule="evenodd" d="M521 107.5L481 156.5V107H471V184H481V169L490 158L510 184H523L496 148L533 107.5H521Z" fill="white"/>
</svg>
