<?xml version="1.0" encoding="UTF-8"?>
<svg width="800" height="450" viewBox="0 0 800 450" fill="none" xmlns="http://www.w3.org/2000/svg">
  <rect width="800" height="450" fill="#1A1A1A"/>
  <path d="M400 150C466.667 150 520 203.333 520 270C520 336.667 466.667 390 400 390C333.333 390 280 336.667 280 270C280 203.333 333.333 150 400 150Z" stroke="#FF6B6B" stroke-width="4"/>
  <path d="M400 180C444.183 180 480 215.817 480 260C480 304.183 444.183 340 400 340C355.817 340 320 304.183 320 260C320 215.817 355.817 180 400 180Z" stroke="#FF6B6B" stroke-width="4"/>
  <path d="M400 210C421.667 210 440 228.333 440 250C440 271.667 421.667 290 400 290C378.333 290 360 271.667 360 250C360 228.333 378.333 210 400 210Z" stroke="#FF6B6B" stroke-width="4"/>
  <path d="M400 240C399.333 240 398.667 240.333 398 240.667C397.333 241 396.667 241.333 396 241.667C395.333 242 394.667 242.333 394 242.667C393.333 243 392.667 243.333 392 243.667C391.333 244 390.667 244.333 390 244.667C389.333 245 388.667 245.333 388 245.667C387.333 246 386.667 246.333 386 246.667C385.333 247 384.667 247.333 384 247.667C383.333 248 382.667 248.333 382 248.667C381.333 249 380.667 249.333 380 249.667C379.333 250 378.667 250.333 378 250.667C377.333 251 376.667 251.333 376 251.667C375.333 252 374.667 252.333 374 252.667C373.333 253 372.667 253.333 372 253.667C371.333 254 370.667 254.333 370 254.667C369.333 255 368.667 255.333 368 255.667C367.333 256 366.667 256.333 366 256.667C365.333 257 364.667 257.333 364 257.667C363.333 258 362.667 258.333 362 258.667C361.333 259 360.667 259.333 360 259.667C359.333 260 358.667 260.333 358 260.667C357.333 261 356.667 261.333 356 261.667C355.333 262 354.667 262.333 354 262.667C353.333 263 352.667 263.333 352 263.667C351.333 264 350.667 264.333 350 264.667C349.333 265 348.667 265.333 348 265.667C347.333 266 346.667 266.333 346 266.667C345.333 267 344.667 267.333 344 267.667C343.333 268 342.667 268.333 342 268.667C341.333 269 340.667 269.333 340 269.667C339.333 270 338.667 270.333 338 270.667C337.333 271 336.667 271.333 336 271.667C335.333 272 334.667 272.333 334 272.667C333.333 273 332.667 273.333 332 273.667C331.333 274 330.667 274.333 330 274.667C329.333 275 328.667 275.333 328 275.667C327.333 276 326.667 276.333 326 276.667C325.333 277 324.667 277.333 324 277.667C323.333 278 322.667 278.333 322 278.667C321.333 279 320.667 279.333 320 279.667C319.333 280 318.667 280.333 318 280.667C317.333 281 316.667 281.333 316 281.667C315.333 282 314.667 282.333 314 282.667C313.333 283 312.667 283.333 312 283.667C311.333 284 310.667 284.333 310 284.667C309.333 285 308.667 285.333 308 285.667C307.333 286 306.667 286.333 306 286.667C305.333 287 304.667 287.333 304 287.667C303.333 288 302.667 288.333 302 288.667C301.333 289 300.667 289.333 300 289.667C299.333 290 298.667 290.333 298 290.667C297.333 291 296.667 291.333 296 291.667C295.333 292 294.667 292.333 294 292.667C293.333 293 292.667 293.333 292 293.667C291.333 294 290.667 294.333 290 294.667C289.333 295 288.667 295.333 288 295.667C287.333 296 286.667 296.333 286 296.667C285.333 297 284.667 297.333 284 297.667C283.333 298 282.667 298.333 282 298.667C281.333 299 280.667 299.333 280 299.667C279.333 300 278.667 300.333 278 300.667C277.333 301 276.667 301.333 276 301.667C275.333 302 274.667 302.333 274 302.667C273.333 303 272.667 303.333 272 303.667C271.333 304 270.667 304.333 270 304.667C269.333 305 268.667 305.333 268 305.667C267.333 306 266.667 306.333 266 306.667C265.333 307 264.667 307.333 264 307.667C263.333 308 262.667 308.333 262 308.667C261.333 309 260.667 309.333 260 309.667C259.333 310 258.667 310.333 258 310.667C257.333 311 256.667 311.333 256 311.667C255.333 312 254.667 312.333 254 312.667C253.333 313 252.667 313.333 252 313.667C251.333 314 250.667 314.333 250 314.667C249.333 315 248.667 315.333 248 315.667C247.333 316 246.667 316.333 246 316.667C245.333 317 244.667 317.333 244 317.667C243.333 318 242.667 318.333 242 318.667C241.333 319 240.667 319.333 240 319.667C239.333 320 238.667 320.333 238 320.667C237.333 321 236.667 321.333 236 321.667C235.333 322 234.667 322.333 234 322.667C233.333 323 232.667 323.333 232 323.667C231.333 324 230.667 324.333 230 324.667C229.333 325 228.667 325.333 228 325.667C227.333 326 226.667 326.333 226 326.667C225.333 327 224.667 327.333 224 327.667C223.333 328 222.667 328.333 222 328.667C221.333 329 220.667 329.333 220 329.667C219.333 330 218.667 330.333 218 330.667C217.333 331 216.667 331.333 216 331.667C215.333 332 214.667 332.333 214 332.667C213.333 333 212.667 333.333 212 333.667C211.333 334 210.667 334.333 210 334.667C209.333 335 208.667 335.333 208 335.667C207.333 336 206.667 336.333 206 336.667C205.333 337 204.667 337.333 204 337.667C203.333 338 202.667 338.333 202 338.667C201.333 339 200.667 339.333 200 339.667C199.333 340 198.667 340.333 198 340.667C197.333 341 196.667 341.333 196 341.667C195.333 342 194.667 342.333 194 342.667C193.333 343 192.667 343.333 192 343.667C191.333 344 190.667 344.333 190 344.667C189.333 345 188.667 345.333 188 345.667C187.333 346 186.667 346.333 186 346.667C185.333 347 184.667 347.333 184 347.667C183.333 348 182.667 348.333 182 348.667C181.333 349 180.667 349.333 180 349.667C179.333 350 178.667 350.333 178 350.667C177.333 351 176.667 351.333 176 351.667C175.333 352 174.667 352.333 174 352.667C173.333 353 172.667 353.333 172 353.667C171.333 354 170.667 354.333 170 354.667C169.333 355 168.667 355.333 168 355.667C167.333 356 166.667 356.333 166 356.667C165.333 357 164.667 357.333 164 357.667C163.333 358 162.667 358.333 162 358.667C161.333 359 160.667 359.333 160 359.667C159.333 360 158.667 360.333 158 360.667C157.333 361 156.667 361.333 156 361.667C155.333 362 154.667 362.333 154 362.667C153.333 363 152.667 363.333 152 363.667C151.333 364 150.667 364.333 150 364.667C149.333 365 148.667 365.333 148 365.667C147.333 366 146.667 366.333 146 366.667C145.333 367 144.667 367.333 144 367.667C143.333 368 142.667 368.333 142 368.667C141.333 369 140.667 369.333 140 369.667C139.333 370 138.667 370.333 138 370.667C137.333 371 136.667 371.333 136 371.667C135.333 372 134.667 372.333 134 372.667C133.333 373 132.667 373.333 132 373.667C131.333 374 130.667 374.333 130 374.667C129.333 375 128.667 375.333 128 375.667C127.333 376 126.667 376.333 126 376.667C125.333 377 124.667 377.333 124 377.667C123.333 378 122.667 378.333 122 378.667C121.333 379 120.667 379.333 120 379.667C119.333 380 118.667 380.333 118 380.667C117.333 381 116.667 381.333 116 381.667C115.333 382 114.667 382.333 114 382.667C113.333 383 112.667 383.333 112 383.667C111.333 384 110.667 384.333 110 384.667C109.333 385 108.667 385.333 108 385.667C107.333 386 106.667 386.333 106 386.667C105.333 387 104.667 387.333 104 387.667C103.333 388 102.667 388.333 102 388.667C101.333 389 100.667 389.333 100 389.667C99.3333 390 98.6667 390.333 98 390.667C97.3333 391 96.6667 391.333 96 391.667C95.3333 392 94.6667 392.333 94 392.667C93.3333 393 92.6667 393.333 92 393.667C91.3333 394 90.6667 394.333 90 394.667C89.3333 395 88.6667 395.333 88 395.667C87.3333 396 86.6667 396.333 86 396.667C85.3333 397 84.6667 397.333 84 397.667C83.3333 398 82.6667 398.333 82 398.667C81.3333 399 80.6667 399.333 80 399.667C79.3333 400 78.6667 400.333 78 400.667C77.3333 401 76.6667 401.333 76 401.667C75.3333 402 74.6667 402.333 74 402.667C73.3333 403 72.6667 403.333 72 403.667C71.3333 404 70.6667 404.333 70 404.667C69.3333 405 68.6667 405.333 68 405.667C67.3333 406 66.6667 406.333 66 406.667C65.3333 407 64.6667 407.333 64 407.667C63.3333 408 62.6667 408.333 62 408.667C61.3333 409 60.6667 409.333 60 409.667C59.3333 410 58.6667 410.333 58 410.667C57.3333 411 56.6667 411.333 56 411.667C55.3333 412 54.6667 412.333 54 412.667C53.3333 413 52.6667 413.333 52 413.667C51.3333 414 50.6667 414.333 50 414.667C49.3333 415 48.6667 415.333 48 415.667C47.3333 416 46.6667 416.333 46 416.667C45.3333 417 44.6667 417.333 44 417.667C43.3333 418 42.6667 418.333 42 418.667C41.3333 419 40.6667 419.333 40 419.667C39.3333 420 38.6667 420.333 38 420.667C37.3333 421 36.6667 421.333 36 421.667C35.3333 422 34.6667 422.333 34 422.667C33.3333 423 32.6667 423.333 32 423.667C31.3333 424 30.6667 424.333 30 424.667C29.3333 425 28.6667 425.333 28 425.667C27.3333 426 26.6667 426.333 26 426.667C25.3333 427 24.6667 427.333 24 427.667C23.3333 428 22.6667 428.333 22 428.667C21.3333 429 20.6667 429.333 20 429.667C19.3333 430 18.6667 430.333 18 430.667C17.3333 431 16.6667 431.333 16 431.667C15.3333 432 14.6667 432.333 14 432.667C13.3333 433 12.6667 433.333 12 433.667C11.3333 434 10.6667 434.333 10 434.667C9.33333 435 8.66667 435.333 8 435.667C7.33333 436 6.66667 436.333 6 436.667C5.33333 437 4.66667 437.333 4 437.667C3.33333 438 2.66667 438.333 2 438.667C1.33333 439 0.666667 439.333 0 439.667" stroke="#FF6B6B" stroke-width="2"/>
</svg> 